<svg xmlns="http://www.w3.org/2000/svg" width="376" height="144" fill="none"><path fill="#333" d="M217.769 87.483a7.787 7.787 0 0 1-5.533-2.318 7.945 7.945 0 0 1 0-11.163 7.766 7.766 0 0 1 5.537-2.316 7.78 7.78 0 0 1 5.537 2.316 7.949 7.949 0 0 1 0 11.163 7.785 7.785 0 0 1-5.541 2.318Zm0-24.302a16.173 16.173 0 0 0-9.051 2.743 16.453 16.453 0 0 0-6.985 16.81 16.454 16.454 0 0 0 12.779 12.964 16.162 16.162 0 0 0 16.704-6.98 16.494 16.494 0 0 0-1.995-20.702 16.197 16.197 0 0 0-11.452-4.8v-.035ZM288.09 87.744a8.077 8.077 0 0 1-5.747-2.4 8.23 8.23 0 0 1 0-11.575 8.081 8.081 0 0 1 5.733-2.4 7.673 7.673 0 0 1 5.582 2.428 7.545 7.545 0 0 1 1.645 2.653 10.084 10.084 0 0 1 0 6.172 7.946 7.946 0 0 1-1.645 2.654 7.829 7.829 0 0 1-2.537 1.803 7.743 7.743 0 0 1-3.045.686l.014-.02Zm7.446-21.086a12.607 12.607 0 0 0-8.996-3.51c-7.543 0-15.216 5.636-15.216 16.409a16.2 16.2 0 0 0 5.067 12.294 15.17 15.17 0 0 0 10.032 4.06c1.702.038 3.393-.28 4.965-.933a12.333 12.333 0 0 0 4.162-2.859v3.161h8.867V47.966h-8.915l.034 18.692ZM325.119 87.483a7.783 7.783 0 0 1-5.541-2.318 7.962 7.962 0 0 1 0-11.163 7.773 7.773 0 0 1 8.539-1.716c.95.398 1.812.981 2.535 1.716a7.962 7.962 0 0 1 0 11.163 7.752 7.752 0 0 1-5.533 2.318Zm0-24.302a16.142 16.142 0 0 0-9.052 2.743 16.525 16.525 0 0 0-7.195 12.038 16.513 16.513 0 0 0 4.651 13.23 16.17 16.17 0 0 0 25.035-2.474 16.452 16.452 0 0 0-1.421-20.084 16.454 16.454 0 0 0-5.82-4.177 16.18 16.18 0 0 0-6.171-1.262l-.027-.014ZM253.933 87.484a7.906 7.906 0 0 1-3.922-1.015 7.752 7.752 0 0 1-2.88-2.846 7.902 7.902 0 0 1-1.111-3.922 7.989 7.989 0 0 1 .974-3.957 7.862 7.862 0 0 1 2.811-2.935 7.754 7.754 0 0 1 7.797-.171 7.854 7.854 0 0 1 2.921 2.804l7.303-4.525a16.177 16.177 0 0 0-22.012-5.561 16.462 16.462 0 0 0-8.133 14.077 16.452 16.452 0 0 0 7.928 14.195 16.1 16.1 0 0 0 16.121.35 16.365 16.365 0 0 0 6.062-5.788l-7.296-4.567a7.62 7.62 0 0 1-6.59 3.806M361.173 87.483a7.889 7.889 0 0 1-3.908-1.015 7.9 7.9 0 0 1-4.005-6.775 7.93 7.93 0 0 1 3.778-6.891 7.848 7.848 0 0 1 3.882-1.138 7.74 7.74 0 0 1 3.922.967 7.86 7.86 0 0 1 2.935 2.811l7.289-4.533a16.136 16.136 0 0 0-5.959-5.746 15.942 15.942 0 0 0-7.989-2.057 16.163 16.163 0 0 0-11.156 4.985 16.497 16.497 0 0 0 0 22.835 16.162 16.162 0 0 0 11.156 4.984 15.956 15.956 0 0 0 7.989-2.057 16.162 16.162 0 0 0 5.938-5.739l-7.289-4.567a7.636 7.636 0 0 1-6.603 3.806M166.211 87.744a2.049 2.049 0 0 0-.336 1.07v6.555h33.072v-8.763h-21.189l20.777-31.015c.203-.327.32-.7.343-1.084v-6.486h-33.065v8.784h21.147l-20.749 30.94Z"/><path fill="#FEED5A" d="M72 144a72.003 72.003 0 0 0 70.617-86.046A72.004 72.004 0 0 0 44.447 5.48 72 72 0 0 0 72 144Z"/><path fill="#333" d="M50.455 75.874a5.39 5.39 0 1 0 0-10.78 5.39 5.39 0 0 0 0 10.78ZM93.56 75.874a5.39 5.39 0 1 0-.001-10.78 5.39 5.39 0 0 0 0 10.78Z"/><path fill="#333" d="M72.041 107.986a53.983 53.983 0 0 1-20.4-3.984l-2.99-1.261v-5.205L84.9 43.796H48.864V36.02h46.43v6.275L57.744 97.96a46.316 46.316 0 0 0 14.297 2.249 47.803 47.803 0 0 0 23.136-5.972l3.765 6.802a55.54 55.54 0 0 1-26.9 6.946Z"/></svg>